<?xml version="1.0" encoding="utf-8"?>
<!-- Generator: Adobe Illustrator 24.3.0, SVG Export Plug-In . SVG Version: 6.00 Build 0)  -->
<svg version="1.1" id="Layer_1" xmlns="http://www.w3.org/2000/svg" xmlns:xlink="http://www.w3.org/1999/xlink" x="0px" y="0px"
	 viewBox="0 0 1080 1080" style="enable-background:new 0 0 1080 1080;" xml:space="preserve">
<style type="text/css">
	.st0{fill:#FFFFFF;}
</style>
<g>
	<path class="st0" d="M448.22,336.21c25.74,0.04,51.49,0.07,77.24-0.01c0.05,135.87,0.05,271.74,0,407.61
		c-24.49-0.09-48.98-0.09-73.46,0c0.03-76.62,0-153.23,0.01-229.85c-0.01-3.43,0.18-6.87-0.27-10.27
		C414.6,583.7,377.41,663.7,340.32,743.73c-27.07,0.07-54.14-0.01-81.21,0.05C321.97,607.84,385.24,472.09,448.22,336.21z"/>
	<path class="st0" d="M565.51,336.21c24.56,0.04,49.12,0.08,73.68-0.02c0.14,58.6,0.02,117.2,0.06,175.8
		c0.11,18.45-0.21,36.9,0.15,55.34c33.54-77.09,67.48-154.02,101.09-231.09c26.82,0,53.64,0.02,80.46-0.01
		c-31.33,71.9-63.06,143.61-94.26,215.56c31.65,63.87,62.77,128,94.32,191.91c-27.37,0.13-54.74,0.02-82.11,0.06
		c-16.94-34.64-34.01-69.23-50.92-103.89c-15.06,34.65-30.44,69.16-45.38,103.86c-25.69,0.08-51.39-0.02-77.09,0.05
		C565.49,607.92,565.47,472.07,565.51,336.21z"/>
</g>
</svg>
